<svg width="20" height="20" xmlns="http://www.w3.org/2000/svg"><path d="M10 0C4.484 0 0 4.484 0 10s4.484 10 10 10 10-4.484 10-10S15.516 0 10 0zm6.354 14.7l.213-.09a.557.557 0 0 0-.43-1.027l-.314.134a8.537 8.537 0 0 1-.394-1.012l.417-.083a.557.557 0 0 0-.217-1.09l-.468.094a8.174 8.174 0 0 1-.13-1.075h.504a.554.554 0 1 0 0-1.11h-.504c.024-.362.067-.72.13-1.075l.469.095a.574.574 0 0 0 .653-.437.55.55 0 0 0-.437-.654l-.417-.083c.11-.346.244-.68.394-1.011l.319.133c.342.107.618-.047.728-.299a.555.555 0 0 0-.3-.728l-.216-.09a9.39 9.39 0 0 1 .595-.831 8.85 8.85 0 0 1 1.94 5.535 8.86 8.86 0 0 1-1.936 5.532 8.168 8.168 0 0 1-.599-.827zM3.051 4.466c.213.267.414.543.595.83l-.217.09a.554.554 0 0 0-.3.73c.111.251.387.4.73.298l.318-.133c.154.33.284.665.394 1.011l-.417.083a.553.553 0 0 0-.437.654.578.578 0 0 0 .653.437l.469-.095c.067.354.11.713.13 1.075h-.504a.554.554 0 1 0 0 1.11h.504c-.024.362-.067.72-.13 1.075l-.469-.095a.55.55 0 0 0-.653.437c-.06.3.133.595.437.654l.417.083c-.11.346-.244.68-.394 1.011l-.315-.133a.557.557 0 0 0-.429 1.027l.213.09a9.39 9.39 0 0 1-.595.831 8.859 8.859 0 0 1 0-11.07zm.76 11.905c.323-.39.614-.803.874-1.236l.606.256c.331.102.638-.083.729-.3a.557.557 0 0 0-.3-.728l-.515-.216c.18-.398.334-.803.464-1.22l.465.094a.547.547 0 0 0 .653-.437.554.554 0 0 0-.437-.654l-.413-.083c.079-.425.13-.858.154-1.295h.397a.554.554 0 1 0 0-1.11h-.397c-.024-.437-.075-.87-.154-1.295l.413-.083a.557.557 0 0 0-.217-1.09l-.464.094a9.499 9.499 0 0 0-.464-1.22l.515-.217a.557.557 0 1 0-.433-1.028l-.606.256c-.26-.429-.547-.842-.87-1.232A8.86 8.86 0 0 1 10 1.11a8.86 8.86 0 0 1 6.189 2.516c-.323.39-.614.803-.87 1.232l-.606-.256a.557.557 0 0 0-.433 1.028l.515.216c-.18.398-.334.804-.464 1.22l-.465-.094a.55.55 0 0 0-.653.437c-.06.3.133.595.437.654l.413.083c-.079.425-.13.858-.154 1.295h-.397a.554.554 0 1 0 0 1.11h.397c.024.437.075.87.154 1.295l-.413.083a.562.562 0 0 0-.437.654.547.547 0 0 0 .653.437l.465-.095c.126.418.283.827.464 1.22l-.515.217a.557.557 0 0 0-.3.729c.09.212.398.397.729.299l.606-.256c.26.429.551.842.874 1.236a8.863 8.863 0 0 1-12.378 0z" fill="#E33F14" fill-rule="nonzero"/></svg>